<?xml version="1.0" standalone="no"?>
<!DOCTYPE svg PUBLIC "-//W3C//DTD SVG 20010904//EN"
 "http://www.w3.org/TR/2001/REC-SVG-20010904/DTD/svg10.dtd">
<svg version="1.0" xmlns="http://www.w3.org/2000/svg"
 width="615.000000pt" height="409.000000pt" viewBox="0 0 615.000000 409.000000"
 preserveAspectRatio="xMidYMid meet">

<g transform="translate(0.000000,409.000000) scale(0.100000,-0.100000)"
fill="#000000" stroke="none">
<path d="M2806 4068 c10 -12 13 -18 6 -14 -23 13 -82 17 -82 5 0 -6 6 -9 13
-6 8 3 14 0 14 -7 0 -8 -17 -12 -49 -11 -26 0 -48 3 -48 8 0 4 -7 7 -16 7 -14
0 -14 -3 -4 -15 7 -9 10 -19 6 -22 -12 -13 -35 -11 -47 3 -6 8 -19 14 -27 14
-13 0 -12 -3 4 -16 18 -15 18 -15 -3 -9 -15 4 -23 2 -23 -5 0 -7 -6 -10 -13
-7 -8 3 -22 -6 -32 -19 -14 -19 -21 -22 -31 -13 -8 6 -11 15 -8 20 3 5 -6 4
-20 -3 -25 -11 -30 -19 -27 -44 1 -6 -9 -10 -21 -10 -14 1 -23 -5 -23 -14 0
-10 -9 -14 -23 -12 -13 1 -30 -5 -39 -13 -14 -14 -13 -15 10 -10 15 4 28 2 33
-6 5 -9 2 -10 -11 -5 -18 6 -18 6 1 -15 l19 -22 -24 12 c-13 7 -34 11 -46 9
-18 -4 -22 -1 -17 11 3 9 -6 3 -20 -14 -15 -16 -23 -31 -20 -32 4 -1 19 -4 35
-7 15 -4 27 -11 27 -17 0 -6 -4 -7 -10 -4 -5 3 -19 8 -30 10 -18 3 -19 1 -9
-17 6 -11 35 -55 65 -97 42 -59 54 -84 54 -113 0 -21 -3 -38 -7 -38 -5 0 -9
-19 -10 -42 -11 -215 -15 -268 -24 -298 -12 -42 -29 -210 -34 -334 -2 -54 -10
-106 -21 -135 l-18 -46 -6 30 c-4 20 -11 29 -21 27 -21 -3 -29 42 -29 168 0
60 -4 90 -9 81 -6 -10 -9 0 -9 30 -1 24 -5 73 -11 109 -5 36 -12 90 -16 120
-3 30 -8 69 -12 85 -3 17 -5 46 -5 66 1 21 -2 58 -7 83 -6 32 -5 46 3 46 6 1
2 6 -9 13 -12 7 -20 24 -21 42 -4 88 -27 261 -36 270 -17 16 0 -184 38 -451
18 -132 36 -294 39 -360 7 -147 12 -180 29 -197 11 -10 11 -24 1 -72 -6 -33
-14 -53 -18 -45 -8 22 -6 -40 3 -75 7 -29 8 -29 10 10 2 25 4 32 7 18 5 -27
20 -30 26 -5 4 13 5 11 6 -5 0 -13 -3 -23 -8 -23 -14 0 -21 -58 -11 -85 17
-44 2 -27 -24 29 -14 30 -26 65 -27 78 0 22 -1 22 -10 3 -8 -17 -9 -15 -6 11
3 29 0 32 -40 44 -43 12 -143 72 -193 114 -17 14 -24 29 -22 46 2 21 1 23 -10
10 -7 -8 -18 -16 -23 -16 -6 -1 -21 -5 -34 -9 -16 -5 -21 -4 -17 4 4 6 1 11
-6 12 -7 0 -30 2 -50 5 -21 2 -38 2 -38 0 0 -6 141 -49 159 -49 18 0 41 -15
41 -27 0 -4 -7 -11 -16 -14 -8 -3 -12 -2 -9 4 6 10 -22 24 -73 36 -15 4 -24 3
-20 -1 4 -5 4 -13 -1 -19 -8 -10 -15 -67 -12 -105 1 -9 11 -12 35 -9 l34 4 6
-61 c3 -34 4 -75 2 -91 -2 -16 -1 -22 1 -14 8 24 23 36 23 18 0 -9 9 -35 19
-58 l19 -42 7 31 c7 32 38 44 48 19 3 -8 9 -3 15 12 6 14 24 50 41 80 l31 55
-5 -40 c-2 -22 -7 -57 -11 -77 -5 -27 -3 -38 5 -38 7 0 9 -4 6 -10 -3 -5 -2
-10 4 -10 5 0 15 8 21 18 8 12 13 13 16 4 3 -6 10 -10 15 -6 5 3 9 0 9 -6 0
-6 11 -15 25 -20 14 -5 25 -15 25 -22 0 -7 -11 -25 -25 -40 -14 -15 -25 -32
-25 -38 0 -5 -4 -10 -8 -10 -5 0 -9 -7 -9 -15 0 -20 23 -19 92 5 68 23 115 25
153 6 15 -7 45 -17 67 -21 22 -3 48 -14 58 -23 16 -14 12 -17 -54 -39 -39 -13
-87 -23 -105 -23 -18 0 -35 -4 -39 -9 -3 -5 -23 -8 -45 -7 -22 2 -40 -1 -40
-5 0 -5 -3 -8 -7 -7 -14 5 -53 -36 -53 -55 0 -10 9 -21 20 -24 23 -6 27 -23 5
-23 -44 0 9 -33 56 -34 20 -1 47 -28 42 -43 -3 -8 6 -11 26 -8 18 2 29 0 26
-6 -4 -5 -1 -9 6 -9 6 0 9 -8 6 -19 -3 -15 0 -17 16 -13 16 4 19 2 14 -11 -4
-11 -1 -17 8 -17 8 0 15 -4 15 -10 0 -5 14 -8 30 -6 17 2 33 -1 37 -7 4 -6 1
-7 -7 -2 -8 5 -11 4 -6 -3 10 -17 36 -3 28 16 -5 15 -4 15 9 2 9 -9 18 -22 22
-30 4 -12 6 -12 6 1 1 9 8 22 16 29 12 10 16 9 21 -4 8 -22 25 -20 17 2 -5 13
-3 15 7 5 9 -8 19 -9 32 -2 13 7 18 6 18 -3 1 -8 5 -7 14 5 16 21 36 22 36 2
0 -8 5 -15 10 -15 6 0 10 13 10 29 0 27 -2 29 -27 22 -16 -4 -48 -6 -73 -5
-125 9 -165 19 -189 48 -7 9 -20 16 -27 16 -8 0 -14 5 -14 10 0 6 5 10 10 10
6 0 10 6 10 13 0 18 39 53 68 62 20 6 22 3 22 -29 0 -75 41 -117 112 -115 55
2 96 37 104 91 4 21 10 38 15 38 5 0 9 -3 9 -8 0 -4 18 -18 40 -32 22 -14 43
-32 45 -41 3 -10 18 -20 33 -24 25 -7 25 -8 7 -15 -11 -4 -41 -5 -67 -3 -31 3
-48 1 -48 -6 0 -12 9 -13 84 -13 79 0 80 15 6 85 -65 62 -70 69 -70 87 0 5 -7
6 -17 3 -11 -4 -14 -3 -9 5 10 17 36 10 76 -18 19 -13 41 -25 48 -27 8 -1 32
-20 53 -43 38 -41 40 -42 64 -26 14 9 25 19 25 21 0 14 -44 84 -71 112 -22 24
-26 33 -14 33 12 0 14 4 5 19 -5 11 -10 29 -10 40 0 11 -6 24 -13 28 -8 4 -19
17 -25 28 -6 11 -12 14 -12 7 0 -7 -5 -10 -10 -7 -6 4 -8 11 -5 16 3 5 -1 6
-10 3 -13 -5 -13 -9 -3 -23 12 -14 11 -15 -4 -2 -10 7 -18 21 -19 30 0 11 -2
12 -6 3 -3 -9 -9 -10 -17 -3 -6 5 -23 12 -36 14 -14 3 -44 10 -66 16 -23 6
-50 8 -60 5 -13 -4 -15 -3 -6 3 13 10 -44 30 -150 54 -34 8 -52 16 -45 21 7 4
-4 8 -25 8 -21 0 -38 -4 -38 -10 0 -18 -22 -10 -27 10 -5 18 -22 26 -48 20 -5
-1 -7 2 -3 5 4 4 3 16 -2 26 -7 12 -7 20 0 24 8 5 7 11 0 20 -7 8 -8 20 -4 27
5 7 7 29 5 48 -2 28 0 33 10 23 21 -21 29 -15 50 33 15 32 23 82 29 172 15
207 37 327 64 344 8 5 7 8 -2 8 -7 0 -10 5 -6 11 3 6 15 9 25 6 10 -3 20 0 21
5 2 6 16 11 31 11 22 0 25 2 16 13 -9 11 -7 14 10 14 14 0 20 4 15 12 -5 8 -2
9 9 5 21 -8 49 2 41 14 -3 5 1 6 9 3 8 -3 37 1 64 9 33 10 63 12 91 7 49 -9
58 -3 35 22 -20 22 -15 23 26 2 31 -15 49 -15 186 0 17 2 36 -1 42 -6 22 -18
44 -1 37 27 -4 16 -2 25 6 25 6 0 9 -4 5 -9 -3 -5 -1 -12 4 -15 5 -4 13 -2 16
4 5 8 11 7 21 -1 10 -8 18 -8 27 -1 7 6 26 9 43 7 l29 -4 -31 14 c-47 21 -57
38 -34 57 17 16 19 15 30 -15 8 -25 13 -29 20 -17 6 10 4 21 -8 35 -9 11 -1 7
18 -10 19 -16 36 -33 38 -37 7 -16 24 -7 18 10 -5 15 -5 15 6 1 7 -9 21 -15
31 -13 9 1 24 -4 31 -12 8 -8 22 -14 32 -14 14 0 14 3 4 18 -7 9 0 4 15 -13
31 -33 51 -40 59 -19 6 17 -10 19 -20 3 -4 -8 -9 -7 -15 2 -14 23 -10 32 8 18
15 -13 16 -11 10 11 -5 23 -5 23 8 7 7 -10 17 -19 22 -20 4 -1 7 -7 5 -14 -2
-7 6 -10 18 -8 12 2 20 -1 20 -10 0 -9 8 -12 21 -10 15 3 19 0 15 -11 -3 -9
-2 -12 5 -9 6 4 8 13 5 21 -3 8 -1 14 4 14 5 0 7 7 4 15 -5 11 -2 13 10 9 15
-6 20 -18 17 -38 -4 -17 28 16 35 36 6 18 7 19 25 2 10 -9 19 -24 19 -32 0
-12 3 -11 14 4 14 18 15 18 21 2 6 -14 11 -15 26 -7 15 8 19 6 19 -6 0 -9 4
-13 10 -10 6 4 7 -1 3 -10 -4 -12 -1 -16 13 -14 24 2 84 -20 84 -32 0 -5 9 -9
19 -9 11 0 23 -4 26 -10 3 -5 16 -10 28 -10 27 -1 60 -24 49 -35 -4 -5 -2 -5
5 -1 7 3 27 -9 47 -30 20 -21 36 -34 36 -30 0 11 71 -41 120 -87 41 -41 112
-75 95 -46 -4 6 4 3 19 -6 29 -19 34 -35 10 -35 -8 0 -13 4 -9 9 3 5 0 13 -6
17 -8 4 -9 3 -5 -4 4 -7 1 -12 -6 -12 -8 0 -7 -4 4 -10 9 -6 15 -19 13 -29 -2
-11 6 -28 17 -38 12 -10 18 -12 13 -4 -6 10 -4 12 4 7 8 -6 9 -11 2 -20 -8
-10 -5 -18 10 -32 11 -10 25 -28 30 -39 9 -18 9 -19 -4 -2 -19 23 -24 22 -24
-8 0 -15 7 -27 18 -30 26 -8 24 -22 -2 -21 -13 1 -23 -6 -24 -16 -2 -10 2 -15
10 -12 7 3 16 0 20 -6 3 -6 3 -9 -2 -8 -7 3 -15 -7 -12 -14 0 -2 2 -10 4 -18
8 -39 11 -46 29 -62 12 -11 14 -18 6 -18 -10 0 -9 -4 1 -17 10 -11 10 -14 1
-9 -6 4 -3 -9 9 -28 l21 -35 -121 -38 c-66 -20 -119 -39 -117 -41 5 -5 128 31
242 70 l91 31 -39 35 c-21 19 -36 38 -33 41 4 3 11 -2 16 -12 6 -9 19 -17 30
-17 11 0 17 5 14 10 -4 6 -10 8 -14 6 -4 -3 -13 5 -21 17 -12 20 -12 21 3 8
10 -7 17 -10 17 -6 0 4 7 2 15 -5 8 -7 15 -8 15 -3 0 5 -14 19 -30 32 -17 12
-28 26 -25 30 2 5 -2 14 -10 21 -20 17 -19 31 2 23 11 -4 14 -3 9 5 -9 15 -1
15 27 1 16 -7 14 -3 -7 15 -23 19 -29 33 -30 65 0 23 -5 41 -10 41 -5 0 -7 3
-4 6 3 3 23 -2 43 -10 57 -24 57 -18 0 10 -27 14 -39 22 -25 20 23 -5 24 -4 7
9 -11 7 -26 11 -35 8 -13 -4 -14 -3 -4 5 8 5 35 8 60 6 43 -2 45 -1 28 12 -11
8 -14 14 -8 14 20 0 13 18 -10 26 -13 5 -27 7 -31 6 -5 -1 -6 2 -2 8 4 7 12 7
26 0 13 -7 19 -7 19 0 0 5 -4 10 -10 10 -5 0 -10 6 -10 14 0 7 -10 21 -22 30
-15 10 -17 14 -5 10 12 -4 16 -2 12 7 -2 8 -6 26 -9 40 -4 23 -1 25 22 22 l27
-5 -29 16 c-15 9 -35 16 -44 16 -8 0 -12 3 -8 8 8 7 10 8 49 12 17 2 18 3 4 7
-10 3 -14 10 -11 16 5 8 2 8 -7 0 -17 -17 -30 -16 -23 1 3 8 0 17 -5 21 -6 3
-9 11 -6 16 3 5 -2 6 -11 2 -12 -4 -15 -3 -10 5 4 7 26 12 49 12 41 0 41 1 17
14 -14 7 -29 9 -34 4 -6 -4 -26 -8 -45 -8 -38 0 -38 8 0 13 13 2 29 14 35 26
7 14 14 19 18 12 4 -6 11 -11 17 -11 5 0 4 9 -3 19 -7 11 -17 17 -23 14 -5 -4
1 6 15 21 14 15 25 28 25 29 0 1 -10 18 -22 38 -14 22 -19 39 -13 45 11 11
-43 77 -55 66 -5 -4 -5 1 -2 10 4 11 0 22 -11 28 -16 11 -16 11 1 6 21 -7 22
3 1 33 -11 15 -23 21 -35 18 -11 -3 -17 -1 -13 4 3 5 -11 7 -31 4 -24 -3 -34
-1 -29 7 5 7 -2 9 -20 4 -20 -5 -26 -4 -20 5 5 9 2 10 -9 6 -9 -3 -19 -2 -22
3 -4 6 2 10 12 10 15 0 15 2 3 9 -8 6 -18 7 -24 4 -5 -3 -6 -1 -3 4 4 6 17 8
31 6 13 -3 27 1 31 8 6 9 3 10 -11 5 -15 -6 -17 -5 -6 5 6 7 12 16 12 19 0 9
-69 -1 -76 -11 -3 -5 -10 -9 -16 -9 -5 0 0 9 13 20 l24 20 -30 -6 c-16 -4 -42
-13 -57 -21 -38 -18 -35 -7 3 16 19 12 26 21 19 26 -6 4 -18 1 -26 -6 -13 -11
-14 -9 -3 17 7 16 20 38 28 49 13 16 14 18 1 8 -8 -6 -32 -14 -54 -17 -21 -4
-43 -9 -48 -12 -6 -4 -2 5 7 20 l17 26 -38 -5 c-25 -3 -32 -2 -20 3 28 12 30
43 3 38 -12 -2 -16 -1 -9 1 6 3 12 9 12 14 0 6 4 7 10 4 5 -3 7 0 4 8 -3 9
-13 13 -26 9 -15 -3 -19 -2 -14 7 6 9 0 10 -19 5 -24 -6 -26 -4 -23 16 2 14
11 24 23 26 20 3 20 3 1 -12 -16 -11 -17 -14 -4 -14 42 0 17 56 -28 63 -10 1
-25 6 -33 11 -8 5 -16 3 -22 -5 -6 -10 -9 -11 -9 -2 0 7 -5 12 -11 10 -6 -1
-14 4 -16 12 -4 10 1 11 18 7 21 -6 22 -6 5 5 -10 6 -34 9 -52 6 -25 -4 -32
-3 -27 6 4 7 0 6 -10 -2 -15 -12 -17 -11 -17 3 0 10 9 16 23 17 16 1 14 3 -11
10 -27 8 -40 6 -67 -10 -25 -14 -32 -16 -28 -5 7 20 -26 30 -49 15 -12 -7 -17
-8 -13 -2 12 20 -28 11 -52 -11 -13 -12 -26 -18 -30 -13 -5 4 -2 10 5 12 17 7
15 23 -4 23 -8 0 -13 -3 -10 -8 2 -4 -2 -18 -9 -31 l-13 -24 -6 21 c-4 12 -5
26 -1 31 3 7 -115 10 -326 10 l-332 1 19 -22z m804 -3 c-7 -8 -18 -15 -24 -15
-6 0 -2 7 8 15 25 19 32 19 16 0z m86 -4 c-20 -23 -57 -35 -50 -17 4 10 37 28
63 35 2 1 -4 -8 -13 -18z m84 -31 c0 -15 -58 -42 -65 -30 -4 6 -1 9 7 8 7 -2
12 3 10 10 -1 8 1 11 6 8 4 -2 14 -1 22 5 19 11 20 11 20 -1z m-169 -43 c-10
-9 -11 -8 -5 6 3 10 9 15 12 12 3 -3 0 -11 -7 -18z m109 -11 c0 -2 -7 -7 -16
-10 -8 -3 -12 -2 -9 4 6 10 25 14 25 6z m-1249 -33 c12 -16 12 -17 -1 -7 -8 6
-22 14 -30 17 -13 5 -12 6 1 6 9 1 23 -7 30 -16z m-10 -20 c13 -17 13 -17 -6
-3 -11 8 -22 16 -24 17 -2 2 0 3 6 3 6 0 17 -8 24 -17z m-61 -14 c0 -5 4 -8 8
-5 5 3 9 -1 9 -8 0 -7 -8 -11 -17 -9 -17 4 -24 33 -8 33 4 0 8 -5 8 -11z m-60
-94 c13 -14 21 -25 18 -25 -2 0 -15 11 -28 25 -13 14 -21 25 -18 25 2 0 15
-11 28 -25z m-40 5 c11 -8 7 -9 -15 -4 -37 8 -45 14 -19 14 10 0 26 -5 34 -10z
m1745 -40 c-3 -5 -12 -10 -18 -10 -7 0 -6 4 3 10 19 12 23 12 15 0z m-1760
-10 c3 -5 1 -10 -4 -10 -6 0 -11 5 -11 10 0 6 2 10 4 10 3 0 8 -4 11 -10z
m2052 -186 c-3 -3 -12 -4 -19 -1 -8 3 -5 6 6 6 11 1 17 -2 13 -5z m-10 -40
c-3 -3 -12 -4 -19 -1 -8 3 -5 6 6 6 11 1 17 -2 13 -5z m-1293 -35 c-3 -5 -10
-7 -15 -3 -5 3 -7 10 -3 15 3 5 10 7 15 3 5 -3 7 -10 3 -15z m1103 -15 c-3 -3
-12 -4 -19 -1 -8 3 -5 6 6 6 11 1 17 -2 13 -5z m157 -95 c-29 -12 -36 -10 -22
5 7 7 19 11 27 8 11 -4 10 -7 -5 -13z m-804 -33 c0 -6 -7 -1 -15 10 -8 10 -15
23 -15 28 0 6 7 1 15 -10 8 -10 15 -23 15 -28z m130 34 c0 -5 -2 -10 -4 -10
-3 0 -8 5 -11 10 -3 6 -1 10 4 10 6 0 11 -4 11 -10z m-617 -20 c9 -11 13 -20
9 -20 -4 0 -15 9 -25 20 -9 11 -13 20 -9 20 4 0 15 -9 25 -20z m1407 0 c14
-11 21 -20 17 -20 -5 0 -20 9 -34 20 -14 11 -22 20 -17 20 5 0 20 -9 34 -20z
m-57 -57 c-7 -2 -19 -2 -25 0 -7 3 -2 5 12 5 14 0 19 -2 13 -5z m34 -29 c2 -5
-11 -9 -27 -9 -27 0 -28 1 -13 13 18 13 35 12 40 -4z m-389 -71 c-3 -16 15
-43 25 -36 6 4 7 1 2 -7 -6 -10 -12 -7 -26 11 -9 13 -15 27 -13 31 7 10 14 10
12 1z m394 -116 c-12 -6 -22 -14 -22 -19 0 -4 -4 -8 -10 -8 -5 0 -7 7 -4 15 4
8 12 15 20 15 8 0 14 5 14 11 0 5 5 7 12 3 8 -5 5 -11 -10 -17z m-197 -37 c3
-6 -1 -7 -9 -4 -18 7 -21 14 -7 14 6 0 13 -4 16 -10z m199 -15 c-10 -8 -23
-15 -28 -15 -6 0 -1 7 10 15 10 8 23 15 28 15 6 0 1 -7 -10 -15z m46 -49 c0
-2 -9 -6 -20 -9 -11 -3 -18 -1 -14 4 5 9 34 13 34 5z m-75 -36 c3 -5 2 -10 -4
-10 -5 0 -13 5 -16 10 -3 6 -2 10 4 10 5 0 13 -4 16 -10z m-54 -27 c13 -16 12
-17 -3 -5 -11 9 -18 10 -23 2 -3 -6 -11 -7 -18 -3 -7 4 -4 9 9 14 10 4 20 8
20 8 1 1 8 -7 15 -16z m114 -3 c3 -5 1 -10 -4 -10 -6 0 -11 5 -11 10 0 6 2 10
4 10 3 0 8 -4 11 -10z m-15 -160 c0 -5 -2 -10 -4 -10 -3 0 -8 5 -11 10 -3 6
-1 10 4 10 6 0 11 -4 11 -10z m-2546 -25 c-5 -20 -3 -24 9 -20 8 4 17 -1 20
-9 4 -10 19 -16 39 -16 69 0 97 -50 63 -112 -8 -16 -21 -39 -28 -53 -14 -24
-30 -25 -21 -1 7 18 -40 48 -54 34 -7 -7 -15 -2 -27 16 -26 40 -26 186 1 186
2 0 2 -11 -2 -25z m333 -57 c-3 -7 -5 -2 -5 12 0 14 2 19 5 13 2 -7 2 -19 0
-25z m2248 -136 c-3 -3 -11 0 -18 7 -9 10 -8 11 6 5 10 -3 15 -9 12 -12z
m-2098 -188 c-3 -3 -12 -4 -19 -1 -8 3 -5 6 6 6 11 1 17 -2 13 -5z m96 -111
c-7 -2 -21 -2 -30 0 -10 3 -4 5 12 5 17 0 24 -2 18 -5z m212 -63 c4 -6 12 -7
18 -4 9 5 9 4 0 -6 -9 -10 -15 -10 -28 4 -9 9 -12 16 -6 16 5 0 13 -5 16 -10z
m-95 -70 c0 -5 -4 -10 -10 -10 -5 0 -10 5 -10 10 0 6 5 10 10 10 6 0 10 -4 10
-10z"/>
<path d="M2606 4026 c3 -7 11 -13 19 -13 22 0 18 14 -4 20 -13 3 -18 0 -15 -7z"/>
<path d="M2483 3985 c-3 -9 -3 -19 1 -22 3 -4 6 1 6 10 0 8 6 18 13 20 9 4 9
6 -1 6 -7 1 -15 -6 -19 -14z"/>
<path d="M1980 3940 c-15 -27 -16 -65 -8 -237 3 -62 2 -113 -3 -113 -5 0 -9 5
-9 10 0 6 -5 10 -10 10 -6 0 -5 -8 2 -19 7 -11 16 -17 20 -15 5 3 7 0 6 -8 -2
-7 3 -12 10 -10 6 1 12 -6 12 -15 0 -13 -9 -8 -35 17 -51 49 -84 110 -86 159
-4 54 -12 59 -28 15 -7 -18 -19 -34 -27 -34 -9 0 -12 -5 -8 -12 5 -8 2 -9 -12
-4 -10 5 -27 11 -37 13 -14 5 -15 8 -5 21 11 13 9 15 -17 9 -18 -3 -40 0 -55
8 -15 9 -19 14 -10 15 13 0 13 2 0 10 -12 7 -12 18 -4 58 7 37 7 54 -2 66 -10
14 -12 8 -12 -32 0 -27 -4 -58 -10 -68 -5 -10 -12 -30 -13 -44 -2 -14 -7 -27
-11 -30 -3 -3 -8 -18 -11 -35 -3 -16 -8 -46 -12 -65 l-6 -35 14 30 c12 25 16
27 22 13 4 -10 11 -18 17 -18 5 0 6 6 3 13 -3 6 0 4 7 -7 34 -49 61 -76 79
-76 16 0 19 -7 19 -44 0 -24 3 -46 8 -48 4 -1 15 -19 25 -38 13 -25 16 -28 12
-10 -14 56 -17 109 -8 125 7 13 10 5 11 -30 0 -61 17 -79 41 -47 l18 24 26
-32 c15 -17 27 -37 27 -45 0 -7 7 -15 15 -19 8 -3 15 -16 16 -28 0 -13 3 -17
6 -10 9 22 23 2 23 -32 0 -18 3 -36 7 -40 10 -9 4 -76 -8 -98 -6 -12 -6 -18 1
-18 5 0 10 -7 10 -15 0 -8 12 -22 26 -32 14 -9 49 -46 76 -82 28 -36 48 -57
45 -46 -3 11 -13 45 -22 75 -9 30 -17 62 -17 70 -1 8 -6 19 -12 23 -8 6 -7 10
2 14 19 7 15 43 -5 43 -11 0 -14 3 -8 8 6 4 12 21 13 39 2 23 -3 33 -15 36
-17 4 -17 5 0 6 9 0 17 6 17 12 0 6 -7 9 -15 5 -8 -3 -15 -1 -15 4 0 6 6 10
14 10 9 0 12 7 9 20 -6 23 -11 24 -48 10 -24 -9 -26 -8 -20 11 4 12 3 19 -1
16 -5 -3 -7 23 -5 56 3 34 6 51 8 37 2 -14 6 -44 9 -67 3 -24 10 -43 15 -43 6
0 7 5 3 12 -5 8 -2 9 9 5 13 -5 16 -1 13 22 -2 15 -7 34 -11 41 -4 7 -2 16 6
21 11 7 9 9 -6 10 l-20 0 20 9 c15 6 16 9 4 9 -24 1 -37 38 -48 143 -14 120
-14 141 -1 133 6 -4 10 5 10 20 0 15 -4 24 -10 20 -12 -8 -13 11 -1 33 6 11 5
40 -3 77 -12 58 -13 59 -26 35z m-242 -290 c13 -6 30 -9 38 -6 9 3 12 1 9 -4
-3 -6 -1 -10 6 -10 7 0 10 -3 6 -6 -13 -13 -75 18 -108 54 -29 32 -30 33 -4
11 17 -15 40 -32 53 -39z m30 -100 c9 -5 12 -10 5 -10 -14 0 -70 55 -84 83 -6
12 6 3 26 -20 20 -24 44 -47 53 -53z m175 -111 c6 -4 5 -9 0 -12 -13 -8 -63
91 -63 123 1 17 9 4 27 -40 15 -36 31 -68 36 -71z m77 60 c0 -5 -4 -9 -10 -9
-5 0 -10 7 -10 16 0 8 5 12 10 9 6 -3 10 -10 10 -16z m37 -175 c-3 -3 -12 -4
-19 -1 -8 3 -5 6 6 6 11 1 17 -2 13 -5z m-12 -62 c-3 -3 -5 1 -5 9 0 12 -2 11
-11 -1 -9 -12 -10 -12 -5 3 3 10 6 24 7 30 0 7 5 1 10 -12 5 -13 7 -26 4 -29z
m-25 34 c0 -3 -4 -8 -10 -11 -5 -3 -10 -1 -10 4 0 6 5 11 10 11 6 0 10 -2 10
-4z"/>
<path d="M2 3880 c1 -16 5 -30 10 -30 5 0 6 5 3 10 -3 6 -1 10 4 10 6 0 11 -4
11 -8 0 -5 26 -22 58 -37 31 -16 60 -34 64 -39 4 -6 9 -8 13 -5 10 10 -136
129 -159 129 -2 0 -4 -13 -4 -30z"/>
<path d="M4003 3903 c9 -2 23 -2 30 0 6 3 -1 5 -18 5 -16 0 -22 -2 -12 -5z"/>
<path d="M4030 3884 c-14 -8 -18 -14 -10 -14 8 1 24 7 34 15 24 19 10 18 -24
-1z"/>
<path d="M3988 3878 c-4 -8 2 -20 13 -27 11 -6 18 -15 15 -19 -3 -4 10 -8 27
-9 29 -1 29 -1 7 6 -27 7 -17 20 13 16 9 -2 14 1 11 7 -4 5 -20 8 -36 6 -23
-4 -32 0 -37 15 -6 16 -9 17 -13 5z"/>
<path d="M4111 3795 c-1 -21 14 -34 29 -25 13 8 13 10 -2 10 -9 0 -19 6 -21
13 -3 6 -6 8 -6 2z"/>
<path d="M1524 3725 c-10 -39 0 -48 12 -10 6 19 7 35 3 35 -5 0 -11 -11 -15
-25z"/>
<path d="M2014 3708 c3 -18 10 -69 16 -112 6 -44 13 -82 16 -85 7 -7 -4 107
-17 177 -11 56 -23 73 -15 20z"/>
<path d="M4216 3675 c-11 -8 -15 -15 -10 -15 6 0 19 7 30 15 10 8 15 14 9 14
-5 0 -19 -6 -29 -14z"/>
<path d="M1909 3653 c6 -12 16 -25 21 -28 17 -11 11 5 -11 28 l-21 22 11 -22z"/>
<path d="M1590 3563 c0 -6 -8 -28 -17 -49 l-17 -39 -7 45 -6 45 -1 -40 c0 -22
3 -51 7 -65 6 -22 10 -17 30 38 13 34 21 66 17 69 -3 3 -6 2 -6 -4z"/>
<path d="M3100 3446 c0 -2 7 -7 16 -10 8 -3 12 -2 9 4 -6 10 -25 14 -25 6z"/>
<path d="M4415 3440 c3 -5 8 -10 11 -10 2 0 4 5 4 10 0 6 -5 10 -11 10 -5 0
-7 -4 -4 -10z"/>
<path d="M3170 3436 c0 -2 8 -10 18 -17 15 -13 16 -12 3 4 -13 16 -21 21 -21
13z"/>
<path d="M5438 3373 c5 -68 -22 -173 -44 -173 -8 0 -14 -9 -14 -20 0 -11 -16
-37 -35 -59 -25 -27 -35 -48 -35 -70 0 -33 -13 -66 -37 -89 -7 -7 -13 -19 -13
-25 0 -7 -18 -31 -40 -55 -22 -23 -40 -45 -40 -50 0 -4 -23 -24 -51 -44 -45
-33 -73 -44 -102 -39 -4 1 -18 -5 -30 -14 -12 -8 -32 -15 -44 -15 -12 0 -42
-9 -65 -19 -24 -11 -75 -32 -115 -47 -55 -21 -72 -31 -75 -49 -4 -21 -2 -22
21 -14 136 45 253 80 256 77 2 -2 -53 -23 -123 -48 -70 -24 -128 -47 -130 -52
-2 -4 -10 -8 -18 -8 -8 0 -14 -4 -14 -10 0 -5 6 -7 14 -4 8 3 17 1 21 -5 4 -7
-4 -11 -19 -11 -14 0 -30 -8 -35 -17 -9 -15 -10 -14 -11 10 0 16 -4 26 -10 22
-5 -3 -7 -12 -4 -19 7 -19 -352 -134 -484 -156 -42 -7 -44 -6 -60 26 -9 19
-20 34 -26 34 -5 0 -17 6 -25 14 -9 8 -27 17 -41 19 -14 3 -50 12 -79 21 -60
18 -107 21 -115 7 -3 -4 -20 -12 -38 -16 -29 -6 -31 -8 -13 -15 18 -8 18 -9 2
-9 -10 -1 -27 4 -38 9 -13 7 -19 7 -19 0 0 -5 -12 -10 -26 -10 -14 0 -23 -4
-19 -10 3 -5 -2 -11 -12 -11 -61 -5 -154 -29 -147 -40 3 -5 -3 -9 -13 -9 -11
0 -25 -6 -32 -12 -10 -11 -11 -9 -5 5 5 15 3 16 -20 7 -14 -5 -26 -7 -26 -3 0
4 -7 -2 -15 -13 -8 -10 -15 -15 -15 -10 0 6 -7 1 -16 -10 -8 -10 -12 -13 -8
-5 4 9 2 12 -6 9 -8 -2 -19 -28 -25 -56 -15 -64 -5 -78 44 -61 41 14 51 6 12
-10 -28 -12 -51 -61 -28 -61 7 0 7 -4 -1 -12 -14 -14 -16 -48 -2 -48 5 0 7 -8
3 -17 -4 -12 4 -8 25 11 17 16 30 32 29 35 -1 3 1 6 4 6 4 0 17 9 30 20 22 20
22 19 -2 -15 -28 -41 -34 -66 -18 -76 8 -4 9 -3 5 5 -7 11 17 44 26 36 3 -3 5
2 5 10 0 8 -5 11 -11 8 -6 -4 -5 1 2 10 8 9 19 15 25 14 7 -1 11 6 9 17 -2 10
1 15 7 12 5 -3 17 1 25 10 9 8 16 12 16 8 0 -3 7 -1 15 6 8 6 19 9 24 6 5 -4
12 -2 16 4 3 5 11 10 18 10 6 0 2 -6 -9 -14 -10 -8 -16 -17 -13 -20 3 -3 16 4
28 15 17 16 25 19 31 10 9 -16 17 -15 35 3 15 14 55 11 55 -5 0 -17 -19 -19
-29 -2 -9 16 -10 16 -16 2 -3 -10 -19 -16 -39 -17 -18 -1 -45 -8 -61 -16 -22
-12 -32 -12 -43 -4 -11 10 -13 8 -10 -7 2 -12 -4 -21 -16 -23 -11 -3 -16 0
-11 7 3 6 11 8 17 5 7 -5 8 -2 3 5 -6 10 -11 9 -24 -4 -11 -12 -12 -19 -4 -22
7 -2 3 -12 -10 -27 -75 -81 -100 -118 -86 -127 15 -9 106 -13 97 -3 -3 3 -24
5 -47 6 -26 0 -41 5 -41 13 0 19 30 27 49 13 13 -10 14 -10 4 2 -10 11 -2 22
40 61 29 27 55 49 60 49 4 0 7 -14 7 -30 0 -37 24 -86 48 -98 37 -19 83 -22
113 -6 32 16 59 66 59 109 0 30 5 31 48 5 19 -12 32 -28 32 -40 0 -11 7 -23
15 -27 14 -5 14 -8 -1 -24 -9 -11 -29 -19 -44 -19 -14 0 -30 -4 -36 -10 -5 -5
-32 -13 -59 -16 -28 -3 -52 -9 -55 -12 -3 -4 -11 -7 -19 -7 -9 0 -16 -12 -17
-30 -3 -28 -3 -29 8 -7 14 27 24 28 40 2 16 -26 28 -26 28 1 0 11 5 17 10 14
6 -4 8 -11 5 -16 -4 -5 -1 -9 4 -9 6 0 11 8 11 18 0 9 4 13 8 7 4 -5 15 -16
24 -24 17 -12 18 -11 12 20 -4 28 -3 31 6 16 6 -9 15 -15 20 -12 4 3 11 -3 14
-12 6 -14 9 -14 22 6 9 12 22 20 30 17 7 -3 16 4 20 16 6 21 7 21 20 3 13 -18
14 -18 14 3 0 24 38 74 50 67 4 -3 10 3 13 14 2 11 18 21 38 25 19 4 30 10 24
14 -14 10 -17 32 -5 32 5 0 7 7 4 15 -4 8 1 17 10 21 9 3 16 11 16 16 0 6 -7
7 -16 4 -8 -3 -12 -2 -9 4 3 5 1 18 -4 28 -8 16 -6 21 15 31 29 13 90 15 98 3
6 -10 60 -9 94 2 12 4 20 11 18 15 -3 4 1 19 9 34 8 17 10 27 3 27 -5 0 -8 7
-5 15 4 8 1 17 -5 21 -7 5 -8 2 -3 -6 6 -10 4 -12 -8 -7 -9 3 -40 -2 -69 -12
-90 -32 -94 -33 -57 -12 19 11 129 52 244 91 115 39 212 74 215 78 3 4 16 8
30 10 14 1 27 7 28 12 2 6 7 8 11 6 7 -5 109 16 144 29 13 6 17 2 17 -19 0
-14 3 -26 8 -26 4 0 6 -17 4 -39 -2 -21 0 -41 5 -44 4 -3 9 15 10 40 1 31 8
53 22 66 l20 21 16 -35 16 -34 -7 33 c-7 39 6 58 45 67 21 4 34 19 55 61 39
77 85 120 148 139 75 23 174 27 238 10 52 -14 58 -13 124 11 38 13 71 23 73
20 3 -2 -5 -7 -16 -11 -12 -3 -18 -11 -15 -17 4 -7 -2 -8 -17 -3 -21 7 -22 6
-11 -8 12 -14 9 -15 -25 -11 -35 4 -36 4 -13 -7 14 -7 41 -13 60 -15 19 -2 51
-6 70 -9 55 -8 120 4 120 21 0 21 27 47 40 39 8 -5 7 -11 -1 -21 -9 -11 -8
-14 5 -14 9 0 16 5 16 11 0 5 5 7 11 3 8 -5 10 0 6 17 -3 13 -2 31 4 39 8 12
9 10 4 -7 -10 -36 3 -27 25 18 19 36 33 46 114 84 51 24 104 47 119 50 26 7
27 10 27 70 l0 63 -77 -23 c-43 -12 -111 -34 -150 -48 -40 -15 -73 -23 -73
-19 0 5 18 39 41 76 22 37 38 70 35 73 -3 3 -15 -10 -26 -30 -17 -29 -26 -35
-50 -33 -31 2 -50 21 -72 69 -14 30 -34 34 -64 13 -13 -10 -23 -11 -31 -4 -10
8 -13 6 -13 -8 0 -16 -2 -17 -10 -4 -17 26 -11 38 35 64 25 15 45 28 45 30 0
3 -28 4 -62 3 -147 -2 -202 21 -214 88 -3 22 -12 50 -18 63 -11 20 -12 15 -8
-35z m217 -262 c8 -20 1 -23 -36 -13 -34 8 -46 29 -35 58 5 13 11 12 35 -8 16
-13 32 -29 36 -37z m36 16 c-1 -12 -15 -9 -19 4 -3 6 1 10 8 8 6 -3 11 -8 11
-12z m-161 -128 c0 -4 -5 -11 -11 -14 -6 -4 -8 -13 -5 -20 3 -8 -3 -17 -14
-20 -32 -10 -66 5 -77 34 l-10 28 58 0 c33 0 59 -4 59 -8z m-223 -165 c-3 -3
-12 -4 -19 -1 -8 3 -5 6 6 6 11 1 17 -2 13 -5z m-1380 -461 c-20 -23 -37 -97
-26 -114 15 -24 10 -26 -32 -15 -36 9 -38 11 -18 17 22 5 21 6 -8 10 -18 3
-30 2 -27 -3 3 -4 -2 -8 -10 -8 -9 0 -16 5 -16 12 0 6 -3 8 -7 5 -3 -4 -12 -2
-20 4 -7 6 -13 8 -13 3 0 -5 -5 -2 -10 6 -6 10 -10 11 -10 3 0 -20 -20 -15
-21 5 0 14 -2 14 -9 -3 -7 -18 -8 -19 -15 -2 -4 9 -15 17 -24 17 -9 0 -5 6 13
15 15 8 38 15 50 15 11 0 39 11 61 23 27 15 60 24 99 25 57 3 59 2 43 -15z
m243 -20 c-8 -3 -23 -10 -32 -15 -11 -5 -18 -5 -18 1 0 10 23 18 50 19 13 0
13 0 0 -5z m-530 -53 c0 -5 -8 -10 -17 -10 -15 0 -16 2 -3 10 19 12 20 12 20
0z m-190 -50 c0 -5 -5 -10 -11 -10 -5 0 -7 5 -4 10 3 6 8 10 11 10 2 0 4 -4 4
-10z m314 -52 c-3 -4 -9 -8 -15 -8 -5 0 -9 4 -9 8 0 5 7 9 15 9 8 0 12 -4 9
-9z m-77 -94 c-9 -9 -28 6 -21 18 4 6 10 6 17 -1 6 -6 8 -13 4 -17z"/>
<path d="M3270 3403 c0 -6 8 -17 18 -24 16 -13 16 -13 2 6 -8 11 -16 22 -17
24 -2 2 -3 0 -3 -6z"/>
<path d="M3225 3390 c3 -5 8 -10 11 -10 2 0 4 5 4 10 0 6 -5 10 -11 10 -5 0
-7 -4 -4 -10z"/>
<path d="M4430 3325 c7 -9 15 -13 17 -11 7 7 -7 26 -19 26 -6 0 -6 -6 2 -15z"/>
<path d="M1830 3300 c6 -19 10 -48 10 -64 0 -21 3 -27 11 -19 13 13 3 75 -17
100 -12 16 -12 14 -4 -17z"/>
<path d="M1040 3303 c1 -20 69 -82 95 -88 28 -6 29 -5 8 7 -12 7 -40 30 -62
51 -23 21 -41 34 -41 30z"/>
<path d="M4430 3276 c0 -2 7 -7 16 -10 8 -3 12 -2 9 4 -6 10 -25 14 -25 6z"/>
<path d="M827 3199 c-54 -13 -132 -54 -177 -95 -108 -97 -167 -278 -140 -424
17 -88 24 -105 54 -144 29 -35 31 -44 30 -110 -1 -66 -18 -126 -46 -161 -5 -5
-31 -39 -59 -75 -27 -36 -57 -70 -65 -76 -23 -18 -101 -185 -113 -244 -7 -34
-22 -65 -38 -82 -15 -16 -21 -28 -14 -28 8 0 11 -6 7 -15 -3 -8 -1 -15 4 -15
5 0 10 10 12 22 6 42 28 32 28 -14 0 -23 7 -65 15 -93 9 -27 13 -60 10 -72 -3
-14 -1 -23 6 -23 6 0 9 -6 6 -14 -3 -7 -9 -35 -13 -62 -6 -43 -5 -47 8 -36 13
10 21 7 47 -20 17 -17 36 -46 42 -63 12 -33 34 -46 108 -65 24 -6 60 -22 81
-35 59 -37 97 -43 206 -33 54 5 125 9 157 10 40 1 61 6 64 15 3 7 13 12 22 9
10 -3 27 10 46 37 20 27 41 43 61 48 26 5 37 0 79 -38 27 -23 53 -43 57 -43 5
0 6 -4 3 -10 -3 -6 1 -7 10 -4 9 4 14 13 11 20 -3 9 2 14 14 14 13 0 18 6 15
20 -3 13 2 20 12 20 13 0 14 2 2 17 -8 9 -9 14 -3 10 7 -4 16 -1 22 6 8 10 5
13 -14 15 -14 1 -35 9 -47 17 l-21 15 25 0 c14 0 30 -5 37 -12 9 -9 12 -9 12
3 0 8 -6 21 -12 27 -10 10 -10 15 2 22 8 5 11 12 7 16 -3 4 -12 2 -19 -4 -9
-7 -19 -6 -32 4 -11 8 -28 14 -37 14 -10 0 -29 5 -42 11 -33 15 -46 98 -22
135 9 14 20 22 25 19 6 -4 10 0 10 8 0 14 39 31 49 22 2 -3 -1 -5 -8 -5 -7 0
-10 -4 -6 -10 3 -5 13 -2 24 8 10 9 26 23 37 30 17 11 17 11 -3 2 -14 -7 -24
-7 -28 0 -3 5 -1 10 5 10 17 0 61 36 53 43 -3 4 3 10 13 14 16 6 12 9 -21 19
-32 10 -35 13 -14 13 34 1 89 48 88 75 0 15 -2 16 -6 6 -9 -23 -24 -30 -68
-30 -50 0 -87 27 -87 64 0 14 -5 29 -10 32 -11 7 -1 43 21 69 16 19 16 19 -11
2 -34 -21 -58 -22 -58 -2 0 8 7 15 16 15 22 0 94 43 95 58 1 6 2 20 2 30 1 9
7 21 14 25 7 4 13 13 13 19 0 6 -8 4 -18 -5 -10 -10 -22 -14 -25 -10 -4 3 -7
1 -7 -5 0 -7 5 -12 12 -12 6 0 4 -6 -7 -14 -40 -29 -127 7 -147 61 -6 17 -15
30 -20 27 -9 -6 -10 8 -2 30 3 9 11 13 17 9 5 -3 7 -1 4 4 -8 13 37 63 56 63
25 0 98 89 133 163 52 111 61 226 29 362 -15 59 -81 170 -137 231 -114 121
-290 179 -441 143z m275 -122 c160 -78 246 -230 236 -415 -8 -135 -61 -228
-167 -290 -40 -23 -55 -26 -145 -27 -88 0 -108 3 -156 26 -31 14 -73 41 -93
59 -20 17 -37 29 -37 25 0 -4 -7 -2 -15 5 -9 7 -14 19 -11 26 3 8 0 13 -7 11
-7 -1 -11 6 -11 15 1 10 -1 16 -5 14 -4 -3 -18 30 -31 72 -35 111 -34 225 3
307 48 103 102 156 197 192 57 22 177 12 242 -20z m-453 -585 c17 -27 42 -59
56 -72 14 -13 25 -28 25 -34 0 -16 -60 45 -91 93 -27 42 -35 61 -25 61 2 0 18
-22 35 -48z m-8 -116 c8 -13 8 -17 0 -12 -19 12 -12 -12 13 -41 l25 -30 -48
-20 -48 -20 14 56 c7 31 13 70 13 86 0 31 4 29 31 -19z m505 -151 c-11 -8 -25
-15 -30 -15 -6 0 -2 7 8 15 11 8 25 15 30 15 6 0 2 -7 -8 -15z m-220 -62 c22
-9 42 -16 45 -15 16 3 111 -105 133 -152 86 -181 -9 -419 -204 -510 -156 -73
-332 -15 -415 135 -28 50 -30 61 -30 159 0 97 2 110 32 172 48 103 144 188
243 219 47 14 156 10 196 -8z m299 -431 c-17 -59 -68 -156 -88 -169 -6 -3 -1
10 12 30 46 74 73 159 79 252 l7 90 3 -73 c2 -47 -3 -95 -13 -130z m-808 166
c-3 -8 -6 -5 -6 6 -1 11 2 17 5 13 3 -3 4 -12 1 -19z m-10 -40 c-3 -8 -6 -5
-6 6 -1 11 2 17 5 13 3 -3 4 -12 1 -19z m743 -98 l-11 -25 6 25 c2 14 5 34 6
45 2 19 2 19 6 0 2 -12 -1 -32 -7 -45z m70 -283 c0 -4 -19 -17 -42 -28 -24
-10 -62 -33 -84 -50 -39 -29 -43 -30 -69 -17 l-27 15 44 36 c49 41 58 43 89
25 18 -12 24 -9 47 20 19 24 27 30 33 20 5 -7 9 -17 9 -21z m-639 -110 c-8 -8
-11 -7 -11 4 0 20 13 34 18 19 3 -7 -1 -17 -7 -23z"/>
<path d="M1210 2504 c-36 -14 -71 -26 -77 -26 -10 -1 -10 -5 -1 -17 7 -9 9
-13 4 -9 -5 4 -17 3 -27 -2 -12 -7 -20 -7 -24 0 -11 18 -23 10 -27 -20 -3 -19
0 -31 9 -34 15 -6 171 84 198 114 22 24 25 25 -55 -6z m-30 -28 c0 -2 -7 -7
-16 -10 -8 -3 -12 -2 -9 4 6 10 25 14 25 6z"/>
<path d="M1035 2374 c-8 -9 -22 -13 -31 -10 -8 3 -12 2 -9 -4 10 -16 41 -11
60 10 21 24 4 27 -20 4z"/>
<path d="M915 2370 c27 -12 43 -12 25 0 -8 5 -22 9 -30 9 -10 0 -8 -3 5 -9z"/>
<path d="M4443 3093 c9 -2 23 -2 30 0 6 3 -1 5 -18 5 -16 0 -22 -2 -12 -5z"/>
<path d="M4452 3073 c19 -5 31 -30 18 -38 -6 -4 -10 1 -10 9 0 9 -4 16 -10 16
-12 0 -9 -22 5 -32 5 -4 15 -2 22 4 17 14 -1 48 -25 47 -15 -1 -15 -2 0 -6z"/>
<path d="M4886 2995 c-3 -9 -6 -24 -5 -33 0 -9 5 -4 10 12 9 32 6 48 -5 21z"/>
<path d="M5027 2973 c-4 -3 -7 -13 -7 -21 0 -13 3 -13 18 1 10 10 22 14 27 10
4 -5 5 -2 1 5 -8 13 -29 16 -39 5z"/>
<path d="M4457 2879 c7 -7 15 -10 18 -7 3 3 -2 9 -12 12 -14 6 -15 5 -6 -5z"/>
<path d="M4856 2823 c-17 -115 -18 -138 -7 -127 6 6 13 45 16 87 5 82 0 101
-9 40z"/>
<path d="M1740 2825 c0 -14 2 -25 4 -25 2 0 6 11 8 25 3 14 1 25 -3 25 -5 0
-9 -11 -9 -25z"/>
<path d="M4946 2795 c-9 -26 -7 -32 5 -12 6 10 9 21 6 23 -2 3 -7 -2 -11 -11z"/>
<path d="M4931 2744 c0 -11 3 -14 6 -6 3 7 2 16 -1 19 -3 4 -6 -2 -5 -13z"/>
<path d="M4434 2718 c-4 -7 -4 -10 1 -6 4 4 14 0 21 -10 7 -9 14 -12 14 -6 0
6 -6 17 -14 23 -11 9 -16 9 -22 -1z"/>
<path d="M4590 2593 c0 -6 8 -17 18 -24 16 -13 16 -13 2 6 -8 11 -16 22 -17
24 -2 2 -3 0 -3 -6z"/>
<path d="M4640 2570 c0 -5 5 -10 10 -10 6 0 10 5 10 10 0 6 -4 10 -10 10 -5 0
-10 -4 -10 -10z"/>
<path d="M5013 2524 c-7 -18 51 -100 66 -96 12 2 15 -11 4 -21 -3 -4 -13 -1
-22 6 -14 10 -14 10 -3 -5 8 -9 11 -22 7 -28 -7 -12 -83 -50 -100 -50 -23 0
-37 -44 -27 -81 8 -25 10 -28 11 -12 1 31 47 60 71 45 15 -9 17 -8 13 8 -6 22
37 70 58 66 30 -4 59 -40 59 -74 0 -18 4 -31 9 -28 5 4 12 0 14 -6 9 -22 8 18
-4 119 -6 52 -7 99 -2 103 4 4 71 -13 148 -37 115 -37 155 -45 225 -46 50 -1
86 2 87 8 1 6 -6 8 -15 6 -40 -10 -131 -1 -186 18 -32 11 -63 18 -69 14 -5 -3
-7 -1 -4 4 8 12 -24 23 -68 23 -39 0 -72 20 -35 20 36 0 70 11 70 21 0 5 -7 9
-15 9 -8 0 -15 -5 -15 -11 0 -18 -160 -3 -221 20 -43 17 -51 18 -56 5z"/>
<path d="M5213 2503 c9 -2 23 -2 30 0 6 3 -1 5 -18 5 -16 0 -22 -2 -12 -5z"/>
<path d="M1820 2492 c0 -9 -7 -11 -22 -7 -22 6 -22 6 -4 -9 11 -9 23 -16 28
-16 4 0 8 -21 8 -47 0 -45 -1 -46 -19 -29 -18 17 -19 17 -24 -1 -4 -16 -5 -16
-6 0 0 9 -5 17 -9 17 -4 0 -5 -27 -2 -59 5 -52 4 -58 -10 -48 -13 10 -13 9 1
-13 14 -22 14 -36 2 -120 -24 -167 -25 -186 -15 -171 5 7 7 23 4 35 -3 11 -2
19 1 16 3 -3 7 -14 9 -25 1 -11 9 -25 16 -30 7 -6 14 -26 15 -45 2 -27 -2 -35
-15 -34 -10 1 -14 -4 -11 -12 3 -8 2 -14 -1 -14 -9 0 -27 49 -36 100 -6 36 -8
39 -9 15 0 -17 5 -55 13 -84 l14 -54 -34 -44 c-19 -25 -34 -48 -34 -53 0 -4
-17 -39 -38 -77 -23 -39 -44 -95 -51 -133 -7 -36 -17 -78 -22 -95 -4 -16 -9
-65 -11 -108 -2 -76 -3 -78 -46 -128 -25 -27 -42 -53 -38 -56 3 -4 12 1 19 9
75 97 115 138 132 138 28 0 71 -24 68 -38 -2 -6 3 -9 10 -6 7 2 21 -4 31 -15
18 -19 17 -22 -11 -68 -16 -26 -34 -61 -41 -76 -6 -15 -19 -30 -27 -33 -8 -4
-15 -10 -15 -16 0 -5 5 -6 12 -2 7 4 8 3 4 -5 -4 -6 -11 -9 -16 -6 -5 3 -24
-21 -43 -54 -19 -32 -43 -70 -52 -85 -10 -14 -15 -26 -12 -26 3 0 27 34 53 75
25 42 48 74 50 72 4 -3 -80 -144 -142 -240 -20 -31 -22 -36 -7 -28 47 25 97
89 183 234 52 87 96 153 98 147 6 -17 213 106 213 127 0 4 9 8 21 7 19 -1 19
0 5 11 -9 7 -14 14 -11 17 7 8 51 -35 47 -44 -2 -5 2 -8 10 -8 8 0 21 -8 28
-18 13 -15 12 -16 -3 -4 -14 11 -16 11 -11 -7 3 -12 10 -18 16 -14 6 4 8 0 4
-10 -3 -10 -2 -17 3 -17 5 0 10 -10 12 -22 2 -12 8 -23 14 -25 7 -2 10 6 7 22
-5 25 5 31 46 26 19 -3 -12 39 -41 56 -20 11 -21 12 -4 13 10 0 25 -8 32 -17
10 -15 15 -16 25 -5 11 10 10 12 0 12 -10 0 -11 3 -3 13 17 20 8 104 -13 127
-10 11 -15 20 -10 20 4 0 3 6 -3 13 -6 7 -13 26 -16 42 -3 17 -10 31 -16 33
-5 2 -10 10 -10 18 0 8 -6 14 -14 14 -9 0 -12 8 -8 26 3 17 1 25 -5 21 -7 -4
-11 3 -11 16 1 41 -6 77 -15 77 -4 0 -7 6 -5 13 2 6 -3 30 -9 52 -7 22 -21 70
-32 107 -19 67 -48 108 -75 108 -8 0 -18 5 -21 10 -4 6 -11 7 -17 4 -6 -4 -8
1 -3 15 3 12 8 44 9 71 1 28 5 53 9 56 3 4 2 15 -3 25 -7 12 -7 20 0 24 5 3
10 11 10 16 0 6 -4 7 -10 4 -6 -4 -7 1 -3 11 8 22 8 43 -2 167 -7 87 -16 118
-27 85 -7 -20 -38 0 -38 24 0 25 -20 64 -20 40z m36 -217 c-8 -8 -18 -15 -22
-15 -3 0 -1 7 6 15 7 8 17 15 22 15 5 0 3 -7 -6 -15z m8 -33 c-6 -4 -10 -15
-8 -25 1 -9 -1 -15 -6 -12 -7 4 -7 22 -1 43 1 1 7 2 14 2 8 0 9 -3 1 -8z m1
-114 c6 -4 2 -8 -7 -8 -10 0 -18 7 -18 17 0 9 3 12 8 7 4 -5 12 -12 17 -16z
m85 -672 c0 -2 -8 -10 -17 -17 -16 -13 -17 -12 -4 4 13 16 21 21 21 13z"/>
<path d="M4467 2483 c-27 -8 -47 -17 -44 -19 2 -2 30 4 63 15 32 10 52 19 44
19 -8 0 -37 -7 -63 -15z"/>
<path d="M4388 2453 c7 -3 16 -2 19 1 4 3 -2 6 -13 5 -11 0 -14 -3 -6 -6z"/>
<path d="M4400 2387 c-30 -14 -31 -18 -34 -127 -3 -92 0 -113 17 -103 6 3 7 1
3 -6 -6 -9 -12 -9 -24 1 -14 11 -14 9 1 -14 16 -25 15 -32 -3 -30 -3 0 -6 -28
-7 -64 -2 -53 2 -68 18 -83 19 -18 19 -21 5 -56 -9 -21 -16 -44 -16 -52 0 -8
-7 -21 -15 -29 -8 -9 -15 -26 -15 -40 0 -23 1 -23 20 -6 39 33 73 190 41 188
-9 -1 -17 7 -19 17 -3 15 1 17 25 12 20 -5 24 -4 14 3 -9 7 -11 16 -6 28 8 18
8 18 12 2 5 -21 19 -23 29 -6 4 6 3 8 -4 4 -15 -9 -24 27 -14 55 5 13 7 30 5
37 -3 6 1 12 9 12 8 0 22 15 32 33 l17 32 -20 -24 c-18 -20 -22 -21 -27 -6
-11 28 4 115 26 152 19 32 19 35 3 28 -10 -4 -26 -8 -35 -9 -19 0 -45 -86 -32
-108 5 -10 4 -10 -5 -2 -10 10 -10 23 0 68 7 31 15 56 18 56 3 0 6 11 6 25 0
14 0 25 0 24 0 0 -11 -6 -25 -12z m-12 -201 c-7 -8 -15 -12 -17 -11 -5 6 10
25 20 25 5 0 4 -6 -3 -14z m-8 -131 c0 -8 -3 -16 -7 -18 -5 -3 -8 5 -8 18 0
13 3 21 8 18 4 -2 7 -10 7 -18z"/>
<path d="M5647 2386 c-4 -10 8 -15 51 -19 61 -5 76 -2 66 15 -4 6 -10 5 -15
-3 -7 -11 -11 -12 -17 -1 -5 7 -16 10 -25 6 -10 -3 -17 -1 -17 5 0 16 -37 14
-43 -3z"/>
<path d="M5786 2381 c-7 -11 17 -21 49 -21 13 0 27 -5 30 -10 10 -17 79 -46
100 -43 11 1 44 8 74 14 42 10 50 14 35 20 -10 4 -38 8 -62 8 -26 1 -41 5 -37
11 4 6 -6 10 -22 10 -16 0 -33 4 -39 10 -6 6 -23 5 -48 -2 -29 -9 -42 -9 -56
0 -11 6 -22 8 -24 3z m116 -8 c-6 -2 -10 -9 -6 -14 3 -5 -2 -9 -10 -9 -22 0
-29 18 -9 23 25 6 41 7 25 0z"/>
<path d="M1691 2243 c1 -86 15 -196 18 -135 0 20 5 31 11 27 6 -3 8 -16 5 -28
-8 -36 -15 -84 -9 -62 4 11 10 25 15 31 5 7 15 50 21 96 11 82 10 86 -12 116
-39 53 -50 42 -49 -45z"/>
<path d="M6045 2290 l-60 -6 37 -17 c40 -18 113 -23 123 -8 3 6 -8 8 -27 5
-18 -3 -46 0 -63 5 l-30 9 35 2 c19 1 44 5 55 10 22 9 18 10 -70 0z"/>
<path d="M4527 2242 c-17 -19 -23 -85 -10 -118 5 -14 10 -6 20 31 29 106 26
127 -10 87z"/>
<path d="M5126 2183 c-4 -5 -13 -8 -19 -8 -7 0 -12 -5 -12 -12 0 -6 -3 -15 -7
-19 -5 -4 -8 -13 -8 -20 0 -18 35 -6 57 19 16 19 16 20 1 8 -20 -15 -25 -2 -6
17 6 6 9 14 7 17 -3 3 -9 2 -13 -2z"/>
<path d="M3466 2127 c3 -10 9 -15 12 -12 3 3 0 11 -7 18 -10 9 -11 8 -5 -6z"/>
<path d="M2180 2070 c-8 -5 -10 -10 -5 -10 6 0 17 5 25 10 8 5 11 10 5 10 -5
0 -17 -5 -25 -10z"/>
<path d="M4028 2043 c7 -3 16 -2 19 1 4 3 -2 6 -13 5 -11 0 -14 -3 -6 -6z"/>
<path d="M1348 2013 c7 -3 16 -2 19 1 4 3 -2 6 -13 5 -11 0 -14 -3 -6 -6z"/>
<path d="M1391 1993 c7 -12 15 -20 18 -17 3 2 -3 12 -13 22 -17 16 -18 16 -5
-5z"/>
<path d="M2661 1994 c0 -11 3 -14 6 -6 3 7 2 16 -1 19 -3 4 -6 -2 -5 -13z"/>
<path d="M3576 1962 c-4 -7 -2 -12 3 -12 6 0 11 -7 11 -16 0 -14 3 -14 15 -4
13 11 14 10 9 -4 -4 -11 -1 -16 10 -16 14 0 19 11 15 38 -1 4 -5 6 -10 5 -5
-2 -9 2 -9 8 0 8 -4 8 -14 0 -11 -9 -15 -9 -18 1 -3 9 -6 9 -12 0z"/>
<path d="M1441 1944 c0 -11 3 -14 6 -6 3 7 2 16 -1 19 -3 4 -6 -2 -5 -13z"/>
<path d="M3551 1953 c-1 -6 -4 -20 -7 -30 -5 -17 -5 -17 6 0 6 10 9 23 6 30
-3 9 -5 9 -5 0z"/>
<path d="M1410 1915 c0 -2 9 -9 20 -15 16 -9 18 -8 14 5 -5 13 -34 22 -34 10z"/>
<path d="M1306 1897 c3 -10 9 -15 12 -12 3 3 0 11 -7 18 -10 9 -11 8 -5 -6z"/>
<path d="M4780 1824 c-66 -13 -126 -40 -160 -70 -105 -95 -139 -358 -65 -509
30 -62 36 -68 112 -106 41 -20 51 -28 35 -29 -13 0 -21 -4 -17 -9 6 -11 -47
-10 -55 0 -3 3 -25 3 -50 -1 -25 -4 -39 -8 -32 -9 7 0 11 -5 8 -10 -13 -20 64
-33 333 -57 410 -36 454 -41 401 -43 -70 -2 -73 -7 -55 -82 29 -119 35 -135
57 -156 34 -32 176 -105 188 -98 6 4 9 1 8 -6 -2 -6 12 -18 30 -25 39 -17 42
-10 5 11 -16 9 -19 13 -8 10 11 -4 36 -7 55 -8 19 0 38 -5 42 -11 4 -6 22 -12
40 -13 57 -3 108 -15 108 -24 0 -5 5 -9 11 -9 6 0 25 -10 42 -22 18 -13 33
-21 35 -19 2 3 137 -9 152 -14 26 -8 58 -30 54 -36 -3 -5 3 -9 13 -9 12 0 9
-5 -12 -16 -16 -8 -38 -13 -48 -10 -14 3 -16 2 -7 -9 10 -12 6 -13 -21 -5 -44
13 -48 6 -7 -10 18 -7 64 -26 101 -42 38 -16 71 -27 75 -24 3 3 -1 6 -9 6 -12
0 -12 2 1 10 12 7 10 11 -10 18 -52 19 -54 21 -17 16 l37 -6 0 109 0 109 -62
27 c-35 15 -71 27 -80 27 -10 0 -18 5 -18 11 0 7 -10 9 -24 5 -14 -3 -27 -2
-31 3 -3 6 -27 8 -52 6 -31 -3 -42 -1 -33 5 21 13 7 22 -39 23 -27 1 -41 7
-41 16 0 11 -3 11 -17 0 -14 -12 -15 -12 -9 0 7 10 4 12 -13 6 -16 -5 -20 -3
-15 8 7 19 -27 31 -58 22 -19 -5 -20 -4 -8 5 12 10 11 11 -8 7 -12 -3 -20 -2
-17 3 6 10 -19 20 -48 20 -12 0 -44 12 -72 25 -27 14 -43 23 -34 21 47 -12
149 -17 149 -7 0 6 -17 11 -38 11 -20 0 -66 6 -102 14 -122 25 -154 57 -131
129 13 39 27 53 92 90 71 40 126 49 227 37 104 -13 176 -32 257 -69 77 -35
162 -68 198 -77 l27 -6 0 101 c0 95 -1 101 -20 101 -26 0 -90 32 -112 57 -28
30 -48 89 -48 138 0 87 60 158 145 172 l35 6 0 107 0 107 -69 7 c-53 5 -71 11
-74 24 -4 15 -5 15 -6 -1 -1 -12 -7 -17 -18 -13 -10 2 -83 7 -163 11 -80 3
-210 10 -290 16 -166 11 -713 20 -750 13z m167 -186 c83 -37 137 -151 94 -203
-15 -18 -15 -19 2 -6 15 12 17 11 17 -8 0 -12 -4 -20 -9 -17 -5 3 -12 -1 -15
-10 -4 -10 -2 -13 6 -7 20 12 -26 -43 -58 -70 -54 -45 -127 -52 -196 -18 -70
36 -117 124 -103 194 9 44 46 117 59 117 6 0 22 9 36 20 29 23 122 27 167 8z
m440 -33 c38 -20 56 -36 76 -74 31 -57 36 -134 12 -182 -9 -16 -13 -34 -10
-38 5 -9 -59 -71 -73 -71 -4 0 7 11 23 25 38 31 28 32 -22 3 -58 -35 -139 -32
-195 7 -156 109 -89 354 98 355 23 0 61 -10 91 -25z m408 -22 c62 -18 125
-109 125 -180 0 -41 -31 -112 -61 -140 -29 -26 -90 -53 -121 -53 -73 0 -158
54 -184 117 -31 73 -5 192 50 228 59 39 124 49 191 28z m-771 -264 c-10 -11
-28 -25 -39 -31 -11 -6 -4 4 15 20 41 36 51 41 24 11z m876 -42 c0 -2 -12 -14
-27 -28 l-28 -24 24 28 c23 25 31 32 31 24z m70 -177 c-20 -13 -57 -13 -65 0
-4 6 11 10 37 10 31 0 39 -3 28 -10z m143 -37 c-13 -2 -33 -2 -45 0 -13 2 -3
4 22 4 25 0 35 -2 23 -4z m-46 -649 c-3 -3 -12 -4 -19 -1 -8 3 -5 6 6 6 11 1
17 -2 13 -5z"/>
<path d="M1327 1556 c-7 -18 12 -36 39 -36 18 0 20 4 15 28 -5 25 -6 26 -9 4
-2 -16 -8 -22 -19 -18 -8 3 -16 6 -19 6 -2 0 -1 7 2 15 4 8 4 15 1 15 -3 0 -7
-6 -10 -14z"/>
<path d="M1360 1490 c0 -5 5 -10 11 -10 5 0 7 5 4 10 -3 6 -8 10 -11 10 -2 0
-4 -4 -4 -10z"/>
<path d="M2902 1349 c-12 -5 -30 -6 -42 -4 -11 2 -20 -1 -20 -9 0 -22 24 -45
65 -62 33 -14 37 -14 27 -1 -17 20 1 31 27 17 11 -6 34 -30 50 -54 33 -47 47
-56 91 -56 27 0 37 9 99 90 14 18 28 24 60 25 69 2 85 45 16 45 -36 0 -95 -46
-95 -74 0 -9 -12 -21 -26 -26 -51 -20 -70 -12 -123 49 -52 60 -86 76 -129 60z
m8 -53 c0 -12 -43 18 -48 34 -3 8 5 6 21 -6 15 -10 27 -23 27 -28z"/>
<path d="M1653 1235 c-6 -7 -9 -16 -6 -19 4 -3 0 -6 -7 -6 -7 0 -10 -3 -7 -7
4 -3 -2 -12 -13 -20 -11 -8 -20 -21 -20 -29 0 -8 -4 -14 -9 -14 -8 0 -21 -34
-18 -46 1 -3 -6 -10 -16 -15 -9 -6 -16 -13 -14 -17 5 -9 -30 -43 -40 -39 -5 1
-9 -14 -11 -33 -3 -35 -2 -34 47 33 58 79 83 125 75 138 -3 5 0 8 7 7 7 -2 18
8 26 22 7 14 19 24 25 22 7 -2 10 0 6 4 -4 4 -1 12 8 18 13 10 13 12 -3 13
-10 1 -23 -5 -30 -12z"/>
<path d="M1695 1182 c-48 -67 -65 -97 -35 -62 34 41 82 111 78 115 -2 2 -21
-22 -43 -53z"/>
<path d="M1229 1189 l-24 -20 28 17 c15 9 27 18 27 20 0 8 -8 4 -31 -17z"/>
<path d="M1589 1183 c-13 -16 -12 -17 4 -4 16 13 21 21 13 21 -2 0 -10 -8 -17
-17z"/>
<path d="M1559 1143 c-13 -16 -12 -17 4 -4 9 7 17 15 17 17 0 8 -8 3 -21 -13z"/>
<path d="M2156 1144 c-5 -14 -4 -15 9 -4 17 14 19 20 6 20 -5 0 -12 -7 -15
-16z"/>
<path d="M3223 1039 c-18 -3 -33 -4 -33 -2 0 3 -7 0 -15 -7 -8 -6 -19 -9 -25
-5 -5 3 -10 2 -10 -4 0 -5 -25 -3 -61 5 -69 16 -134 9 -240 -25 -35 -12 -89
-24 -120 -28 -59 -6 -95 -25 -84 -43 4 -7 16 -9 27 -7 26 7 48 -2 48 -20 0 -8
5 -11 12 -7 7 5 8 3 4 -5 -6 -9 -13 -8 -27 5 -11 9 -21 15 -24 13 -9 -9 161
-176 190 -186 17 -6 39 -14 50 -18 11 -4 36 -10 55 -12 19 -2 37 -7 40 -11 8
-11 214 -11 221 0 3 5 25 12 47 15 36 5 46 2 75 -24 18 -16 49 -38 68 -49 96
-58 137 -80 166 -90 30 -11 31 -10 20 10 -7 11 -20 27 -29 34 -10 7 -18 18
-18 24 0 6 8 4 18 -5 10 -10 22 -14 25 -10 4 3 7 1 7 -5 0 -7 3 -11 8 -11 19
3 33 -2 27 -11 -4 -6 1 -7 11 -3 12 4 15 3 10 -5 -4 -8 -2 -10 7 -6 8 3 18 0
23 -7 4 -8 3 -10 -4 -5 -7 4 -12 5 -12 2 0 -9 60 -37 69 -32 6 4 112 -53 129
-69 2 -2 -1 -12 -8 -22 -10 -15 -11 -15 -6 -1 4 12 -10 26 -51 51 -66 40 -43
48 -213 -72 -128 -91 -206 -135 -226 -127 -8 3 -12 2 -9 -3 7 -12 -135 -44
-171 -38 -22 3 -18 4 14 6 23 0 42 6 42 11 0 7 -28 9 -79 5 -44 -3 -91 -1
-105 5 -14 5 -47 12 -73 15 -26 3 -57 8 -68 12 -18 5 -18 4 -6 -11 13 -16 12
-17 -15 -10 -16 4 -47 16 -69 27 -49 24 -323 209 -427 289 -43 32 -78 55 -78
51 0 -4 5 -35 10 -68 6 -33 13 -89 16 -125 3 -36 10 -73 16 -83 5 -10 7 -24 5
-32 -7 -17 13 -96 23 -90 5 3 11 -9 15 -26 4 -17 22 -48 41 -69 18 -20 30 -41
26 -45 -4 -4 3 -4 16 0 17 5 27 1 40 -15 10 -13 30 -22 47 -23 17 -1 32 -4 35
-7 3 -3 19 -13 37 -22 28 -16 65 -18 341 -18 294 0 312 1 357 21 27 12 58 30
69 40 11 11 24 19 28 19 5 0 6 5 3 10 -3 6 0 10 8 10 8 0 22 11 31 25 9 14 20
23 25 21 4 -3 27 2 51 10 24 8 49 13 57 10 7 -3 13 -1 13 4 0 16 70 44 82 32
6 -6 17 -8 24 -5 8 3 14 -1 14 -11 0 -9 7 -16 15 -16 8 0 15 5 15 12 0 9 3 9
11 1 14 -14 33 8 67 78 29 62 36 102 22 129 -6 12 -10 24 -7 26 3 4 75 -36
271 -149 51 -30 65 -42 55 -49 -10 -7 -8 -8 8 -3 16 4 25 0 33 -15 6 -12 14
-19 17 -17 7 7 103 -52 103 -63 0 -29 -30 -65 -72 -86 -43 -22 -55 -24 -98
-16 -31 6 -53 5 -59 -1 -6 -6 -19 -2 -37 12 -15 12 -30 19 -33 15 -3 -3 5 -14
19 -24 22 -17 43 -20 158 -20 72 0 132 1 132 3 0 1 -4 16 -9 32 -11 41 2 71
41 95 40 24 67 25 150 4 74 -19 109 -38 163 -93 39 -40 41 -40 114 -41 l75 0
-27 28 c-25 26 -39 70 -18 58 5 -4 11 -1 13 6 6 16 134 24 152 9 8 -7 24 -32
35 -57 20 -42 23 -44 66 -44 25 0 45 4 45 8 0 5 -13 21 -30 37 -16 15 -28 32
-27 37 1 6 -7 15 -18 21 -11 7 -25 19 -31 27 -10 12 -7 17 19 28 24 10 28 15
18 22 -12 7 -12 11 1 24 9 8 18 12 22 9 3 -4 6 -1 6 6 0 10 -8 11 -27 6 -42
-12 -205 -12 -230 0 -13 5 -23 16 -23 23 0 17 -15 15 -31 -4 -15 -19 -49 -33
-93 -39 -17 -2 -51 -8 -76 -12 -25 -5 -78 -8 -118 -7 -60 1 -79 6 -113 28 -26
18 -39 33 -35 42 4 10 -3 14 -29 14 -26 0 -85 27 -213 97 -97 53 -188 103
-201 111 -22 15 -24 14 -42 -9 l-18 -24 -33 19 c-202 115 -340 188 -373 197
-22 6 -57 20 -77 32 l-37 20 24 41 c23 39 40 49 40 24 0 -6 6 -12 13 -14 7 -1
8 0 2 3 -8 3 -7 9 1 19 9 11 8 14 -2 15 -27 1 -45 7 -102 33 -68 32 -97 31
-114 -4 -11 -22 -9 -28 15 -54 15 -17 20 -25 11 -18 -9 6 -20 8 -24 4 -5 -4
-5 -1 -1 6 6 10 1 11 -21 7 -46 -10 -47 -10 -60 -18 -7 -5 -17 -5 -23 -2 -5 3
-10 1 -10 -5 0 -6 -4 -9 -9 -6 -5 4 -12 0 -14 -6 -3 -8 -6 -6 -6 5 -1 9 -6 17
-12 17 -5 0 -7 5 -4 10 3 6 2 10 -4 10 -5 0 -12 -8 -14 -17 -3 -10 -6 2 -7 27
-2 29 -4 36 -7 20 -4 -25 -28 -50 -46 -50 -6 0 1 9 14 21 22 19 22 21 4 17
-15 -2 -19 2 -17 17 2 19 2 19 -9 1 -9 -14 -8 -20 2 -27 8 -5 10 -9 4 -9 -18
0 -38 17 -32 27 9 14 -26 12 -35 -1 -5 -7 -8 -6 -8 4 0 8 5 22 10 30 8 12 10
12 10 1 0 -8 2 -12 5 -9 3 3 2 13 -1 22 -6 15 -10 13 -27 -14 -11 -17 -22 -28
-25 -25 -10 10 34 58 55 60 16 1 19 -3 16 -19 -4 -16 -2 -18 5 -7 6 8 16 11
24 8 8 -3 20 4 27 15 9 15 16 17 23 10 8 -8 17 -8 31 0 14 7 22 7 27 -2 4 -7
10 -8 13 -3 4 6 33 10 66 11 52 0 59 -2 54 -16 -5 -16 -5 -16 8 -1 22 26 42
27 62 5 10 -12 16 -15 12 -8 -3 6 -1 12 5 12 6 0 8 5 4 12 -5 8 -2 9 10 5 10
-4 19 -7 21 -7 2 0 1 -12 -1 -27 -3 -15 -2 -25 1 -21 4 3 8 14 9 24 2 10 9 20
16 22 7 3 10 0 7 -5 -7 -12 10 -40 19 -31 4 4 -1 19 -10 33 -9 14 -12 25 -7
25 6 0 14 -6 18 -12 4 -7 18 -14 31 -14 18 -1 22 3 17 20 -5 21 -5 21 6 -1 11
-21 51 -29 43 -8 -8 20 34 48 71 47 19 -1 35 2 35 6 0 17 -25 32 -52 32 -28 0
-131 24 -148 35 -6 4 -27 8 -48 10 -20 3 -53 8 -72 13 -19 5 -50 5 -67 1z
m-415 -159 c-7 -10 -14 -17 -17 -15 -4 4 18 35 25 35 2 0 -1 -9 -8 -20z m43
-7 c-12 -20 -14 -14 -5 12 4 9 9 14 11 11 3 -2 0 -13 -6 -23z m52 -2 c-11 -31
-17 -34 -23 -15 -9 23 -6 31 14 31 9 0 12 -6 9 -16z m107 9 c0 -5 -8 -10 -17
-10 -15 0 -16 2 -3 10 19 12 20 12 20 0z m-252 -18 c6 -18 -15 -14 -22 4 -4
10 -1 14 6 12 6 -2 14 -10 16 -16z m59 -24 c-3 -8 -6 -5 -6 6 -1 11 2 17 5 13
3 -3 4 -12 1 -19z m178 -598 c4 -7 -3 -8 -22 -4 -38 9 -42 14 -10 14 14 0 29
-5 32 -10z m92 -16 c-3 -3 -12 -4 -19 -1 -8 3 -5 6 6 6 11 1 17 -2 13 -5z m63
-4 c0 -5 -2 -10 -4 -10 -3 0 -8 5 -11 10 -3 6 -1 10 4 10 6 0 11 -4 11 -10z
m-585 -130 c-3 -6 1 -13 9 -16 9 -3 16 -10 16 -15 0 -5 -12 -2 -26 7 -19 13
-22 19 -12 25 17 11 20 11 13 -1z"/>
<path d="M3425 860 c3 -6 -1 -13 -9 -16 -30 -11 -16 -23 14 -13 33 12 38 24
14 33 -22 8 -26 8 -19 -4z"/>
<path d="M1560 803 c-111 -146 -109 -141 -86 -182 16 -28 27 -15 24 27 -2 33
68 159 92 164 11 3 12 6 3 11 -7 4 -20 -4 -33 -20z"/>
<path d="M3102 800 c0 -14 2 -19 5 -12 2 6 2 18 0 25 -3 6 -5 1 -5 -13z"/>
<path d="M1147 747 l-17 -32 20 24 c17 20 26 41 18 41 -2 0 -11 -15 -21 -33z"/>
<path d="M3401 744 c-6 -14 -7 -23 -2 -20 5 3 20 -5 34 -18 29 -27 99 -47 73
-20 -9 8 -19 21 -23 27 -5 7 -22 23 -39 35 l-31 21 -12 -25z"/>
<path d="M3480 766 c0 -2 8 -10 18 -17 15 -13 16 -12 3 4 -13 16 -21 21 -21
13z"/>
<path d="M3526 729 c14 -23 294 -190 294 -175 0 2 -45 30 -99 60 -54 31 -122
72 -150 91 -29 19 -49 29 -45 24z"/>
<path d="M3509 717 c15 -19 71 -61 71 -54 0 2 -19 19 -42 37 -24 19 -37 26
-29 17z"/>
<path d="M3530 666 c0 -3 9 -10 20 -16 11 -6 20 -8 20 -6 0 3 -9 10 -20 16
-11 6 -20 8 -20 6z"/>
<path d="M1080 644 c-1 -5 -15 -25 -32 -44 -17 -19 -28 -30 -24 -23 4 7 4 24
0 38 -7 28 -1 37 -63 -96 -12 -25 -46 -78 -76 -118 -30 -40 -64 -93 -75 -118
-13 -30 -24 -43 -34 -40 -9 4 -12 0 -9 -13 3 -11 -21 -57 -61 -119 -36 -56
-66 -104 -66 -106 0 -3 63 -5 140 -5 l139 0 15 29 c20 37 46 112 46 131 0 8
25 76 56 150 31 74 64 166 74 203 l18 69 -29 10 c-25 8 -27 13 -18 30 6 11 8
22 5 26 -3 3 -6 1 -6 -4z"/>
<path d="M3884 598 c-52 -45 -59 -73 -27 -100 15 -12 15 -11 2 9 -19 31 -5 39
27 14 15 -12 29 -19 32 -16 3 3 -2 11 -11 18 -12 8 -14 16 -7 27 8 12 10 12
11 -5 0 -14 3 -11 10 10 10 32 20 85 15 85 -1 0 -24 -19 -52 -42z"/>
<path d="M3663 613 c4 -6 2 -13 -5 -15 -8 -3 -6 -6 4 -10 17 -7 19 15 3 29 -4
4 -5 3 -2 -4z"/>
<path d="M5570 611 c13 -10 13 -11 0 -11 -16 -1 28 -29 45 -29 6 0 -1 6 -15
14 -14 7 -24 17 -22 21 2 5 -2 10 -10 12 -9 2 -8 0 2 -7z"/>
<path d="M2440 564 c0 -1 11 -9 25 -18 25 -16 25 -16 14 2 -9 15 -39 27 -39
16z"/>
<path d="M3783 535 c0 -8 5 -11 10 -8 5 3 13 -1 18 -8 6 -10 9 -10 9 -2 0 7
-8 17 -18 22 -14 7 -19 6 -19 -4z"/>
<path d="M2512 514 c10 -10 20 -15 24 -12 3 4 -5 12 -18 18 -22 12 -22 12 -6
-6z"/>
<path d="M205 440 c-3 -5 -2 -10 4 -10 5 0 13 5 16 10 3 6 2 10 -4 10 -5 0
-13 -4 -16 -10z"/>
<path d="M113 405 c0 -8 4 -12 9 -9 4 3 8 9 8 15 0 5 -4 9 -8 9 -5 0 -9 -7 -9
-15z"/>
<path d="M2757 349 c7 -7 15 -10 18 -7 3 3 -2 9 -12 12 -14 6 -15 5 -6 -5z"/>
<path d="M2827 314 c-3 -4 1 -13 11 -20 23 -18 29 -17 29 1 0 9 -6 14 -13 11
-7 -3 -14 0 -16 5 -2 6 -7 7 -11 3z"/>
<path d="M2880 280 c0 -5 5 -10 10 -10 6 0 10 5 10 10 0 6 -4 10 -10 10 -5 0
-10 -4 -10 -10z"/>
<path d="M3 265 c0 -8 4 -12 9 -9 5 3 6 10 3 15 -9 13 -12 11 -12 -6z"/>
<path d="M3298 253 c7 -3 16 -2 19 1 4 3 -2 6 -13 5 -11 0 -14 -3 -6 -6z"/>
<path d="M1373 136 c-10 -31 -9 -36 8 -41 10 -4 23 -4 28 -1 11 7 20 66 10 66
-4 0 -14 2 -21 5 -10 4 -18 -6 -25 -29z"/>
<path d="M4061 86 c-7 -8 -8 -17 -3 -20 6 -3 13 1 16 10 9 23 2 28 -13 10z"/>
</g>
</svg>
